PathFileType	4	(X/Y/Z)	./resultDataOpenSim/trcMotMarkerGrf/sub06/qtm-03-04.trc
DataRate	CameraRate	NumFrames	NumMarkers	Units	OrigDataRate	OrigDataStartFrame	OrigNumFrames
250.000000	250.000000	11	24	m	250.000000	123	490
Frame#	Time	L.Toe.Tip			R.Toe.Tip			L.Ankle.Lat			R.Ankle.Lat			L.Ankle.Med			R.Ankle.Med			L.Heel			R.Heel			L.Knee.Lat			R.Knee.Lat			L.Knee.Med			R.Knee.Med			L.Thigh.Upper			R.Thigh.Upper			L.ASIS			R.ASIS			V.Sacral			L.Acromium			R.Acromium			C7			L.Elbow			R.Elbow			L.Wrist.Lat			R.Wrist.Lat
		X1	Y1	Z1	X2	Y2	Z2	X3	Y3	Z3	X4	Y4	Z4	X5	Y5	Z5	X6	Y6	Z6	X7	Y7	Z7	X8	Y8	Z8	X9	Y9	Z9	X10	Y10	Z10	X11	Y11	Z11	X12	Y12	Z12	X13	Y13	Z13	X14	Y14	Z14	X15	Y15	Z15	X16	Y16	Z16	X17	Y17	Z17	X18	Y18	Z18	X19	Y19	Z19	X20	Y20	Z20	X21	Y21	Z21	X22	Y22	Z22	X23	Y23	Z23	X24	Y24	Z24

123	0.488	-0.14994407	0.10029897	-0.068908351	-0.81087505	0.034871831	0.082980577	-0.27683699	0.090177541	-0.088260127	-0.94352716	0.068073385	0.090673144	-0.27797398	0.10983262	-0.0046721712	-0.9133159	0.082357029	0.0054673718	-0.33076465	0.036903991	-0.035708591	-0.99540766	0.047768608	0.023997958	-0.37653956	0.44982433	-0.10269592	-0.76579144	0.41607346	0.12830812	-0.39171193	0.44069349	0.020007195	-0.78822949	0.41664545	-0.0044472821	-0.58059112	0.78538502	-0.15564038	-0.64713897	0.75624776	0.18590063	-0.5217734	0.82224369	-0.097622013	-0.53679462	0.80302208	0.14904005	-0.71275852	0.89589059	0.020428352	-0.59321441	1.2956431	-0.16849619	-0.56572767	1.2990546	0.19269942	-0.65884163	1.3302385	0.015879817	-0.70746305	1.0007491	-0.1983104	-0.60200598	0.98954316	0.30083585	-0.61867973	0.77867883	-0.25839702	-0.37977898	0.87491617	0.2734117
124	0.492	-0.13675225	0.10211085	-0.067990428	-0.8108129	0.034793147	0.082948044	-0.2634886	0.089957306	-0.087939046	-0.94308462	0.068644893	0.090401947	-0.26549585	0.10920989	-0.0042768908	-0.91262418	0.082643303	0.0052164864	-0.31662896	0.035381864	-0.03632019	-0.99509979	0.048709793	0.023698618	-0.36912878	0.44717884	-0.10166372	-0.76101295	0.41453251	0.12817195	-0.38437294	0.43786503	0.021208955	-0.78301115	0.415368	-0.0046645112	-0.57307012	0.78222414	-0.15553234	-0.64136957	0.754202	0.18576624	-0.51412116	0.81920234	-0.097505829	-0.53020211	0.80033117	0.14928892	-0.70612772	0.89330157	0.019578148	-0.58672557	1.2927517	-0.1687837	-0.55898075	1.2965106	0.19268184	-0.65226044	1.3278744	0.015747302	-0.70139838	0.99810327	-0.19802437	-0.59403566	0.98686487	0.30119044	-0.61483077	0.77554745	-0.25881288	-0.37130407	0.87376117	0.27278072
125	0.496	-0.12411464	0.103647	-0.067132144	-0.81070867	0.034782317	0.082907638	-0.25067607	0.089640329	-0.087574905	-0.94261732	0.06928865	0.09011725	-0.25347878	0.10844949	-0.0037947476	-0.91185204	0.083000779	0.0049670962	-0.30324723	0.033920297	-0.036612907	-0.99475203	0.049750332	0.023356543	-0.36158904	0.4445595	-0.10064172	-0.75621977	0.41297162	0.12799652	-0.37710024	0.4350384	0.022374851	-0.7776488	0.41408387	-0.004913031	-0.56537738	0.77898653	-0.15539375	-0.63577389	0.75235954	0.18576579	-0.50645181	0.8161457	-0.097349363	-0.52356949	0.79768825	0.14963116	-0.69910543	0.89071561	0.019325061	-0.58018169	1.2898753	-0.16909048	-0.55224895	1.293973	0.19265838	-0.64568179	1.3255335	0.015540282	-0.69526438	0.99543853	-0.19776404	-0.58606787	0.98416756	0.30152076	-0.61082181	0.77246168	-0.25914441	-0.36283632	0.87254452	0.27213398
126	0.5	-0.11203717	0.10478476	-0.066350239	-0.8105727	0.034826341	0.08286013	-0.23840898	0.08918533	-0.087159982	-0.94211787	0.070011867	0.089848523	-0.24188526	0.1075598	-0.0032275814	-0.91101929	0.083411096	0.0047351034	-0.29053599	0.032484551	-0.036651317	-0.99433579	0.050902304	0.022964943	-0.35379022	0.44199776	-0.099608212	-0.75140719	0.4113877	0.12779239	-0.36985136	0.43221708	0.023523387	-0.77212353	0.41278228	-0.0051945948	-0.55751298	0.77569931	-0.15520626	-0.63029019	0.75065725	0.18593762	-0.4987218	0.81308061	-0.097155953	-0.51688338	0.79511355	0.15007534	-0.69195679	0.88818287	0.019006846	-0.57358795	1.2870367	-0.169425	-0.5455325	1.2914533	0.19261625	-0.63911001	1.3231513	0.015285289	-0.68905946	0.9927541	-0.19752416	-0.57810096	0.98146062	0.30180985	-0.60670823	0.76941748	-0.25938885	-0.35433847	0.87125512	0.27146372
127	0.504	-0.10052217	0.10545355	-0.065641272	-0.81044907	0.034872966	0.082820699	-0.22668438	0.088541211	-0.086683812	-0.94158441	0.07081989	0.08962355	-0.2306526	0.10654585	-0.0025828442	-0.91012424	0.0838597	0.0045114243	-0.27843326	0.031020945	-0.036516772	-0.99383774	0.052183682	0.022543638	-0.34575085	0.43948252	-0.098609161	-0.74652204	0.40978314	0.12760218	-0.36257675	0.42939565	0.024688146	-0.76644506	0.4114414	-0.0054794618	-0.54958757	0.77240484	-0.15496434	-0.62443286	0.7487402	0.18600809	-0.49086977	0.81000419	-0.09693625	-0.5101565	0.792602	0.1506037	-0.68484636	0.8857203	0.018378277	-0.56695695	1.2842254	-0.16978974	-0.53881476	1.2889587	0.19254014	-0.63248814	1.3207027	0.015004663	-0.6827818	0.99004137	-0.19728869	-0.57013283	0.97876117	0.30203913	-0.60244883	0.76642108	-0.25954568	-0.34586295	0.8698899	0.27078274
128	0.508	-0.089556861	0.10563142	-0.064967632	-0.81037439	0.034872727	0.082807	-0.21549283	0.087658997	-0.086141522	-0.94101605	0.071719436	0.089452901	-0.2197582	0.10540713	-0.0018756076	-0.90915368	0.084352549	0.0042910252	-0.26693184	0.029480151	-0.036249264	-0.99331807	0.053625485	0.022185329	-0.33762463	0.43699009	-0.097708422	-0.74151359	0.4081756	0.1274693	-0.35526971	0.42656718	0.025862272	-0.76065762	0.41004438	-0.0057198011	-0.54162725	0.76914161	-0.15467488	-0.61778266	0.74629011	0.18566378	-0.48285642	0.80690863	-0.096696267	-0.50339452	0.79013381	0.15119659	-0.67778611	0.88330981	0.017614605	-0.5602783	1.2814105	-0.17017293	-0.53208553	1.2864949	0.19243099	-0.62577461	1.3182137	0.014704623	-0.67642148	0.98730675	-0.19702746	-0.5621669	0.97608466	0.30220884	-0.59802302	0.76347216	-0.25962742	-0.3375223	0.86846033	0.27012657
129	0.512	-0.079117121	0.10532784	-0.064279491	-0.81035637	0.034813763	0.08282822	-0.20483495	0.086507488	-0.08553885	-0.94041259	0.072715716	0.089327542	-0.20932277	0.10410182	-0.0011607795	-0.90813976	0.084910104	0.0041009852	-0.25603697	0.027819788	-0.035866613	-0.99288148	0.055247033	0.022007222	-0.32953529	0.4345283	-0.096895542	-0.73636696	0.40659152	0.12742204	-0.34797741	0.42373446	0.026969047	-0.75479964	0.40858889	-0.0058883889	-0.53356762	0.76593334	-0.1543491	-0.61058166	0.74346814	0.18503207	-0.47469935	0.80379452	-0.096428713	-0.49660194	0.78770277	0.15184335	-0.6707439	0.88091282	0.016930078	-0.55353123	1.2785943	-0.17056542	-0.52533593	1.2840661	0.19229229	-0.61896616	1.3157113	0.014385486	-0.66996896	0.984586	-0.19673292	-0.55421325	0.97344511	0.30233606	-0.59358045	0.76053413	-0.25969987	-0.3293378	0.86697589	0.26950504
130	0.516	-0.069189857	0.10456512	-0.063561116	-0.81036785	0.034729456	0.082874574	-0.19472036	0.085076256	-0.08489158	-0.93976441	0.073809484	0.089241446	-0.19953217	0.10254087	-0.00052241714	-0.9071806	0.085560556	0.0040004203	-0.24574833	0.026003042	-0.035396929	-0.99251682	0.057030722	0.021990127	-0.32152166	0.43212086	-0.096110487	-0.73109225	0.40505079	0.12747423	-0.34073877	0.42091695	0.027928626	-0.74887853	0.4070791	-0.0059822084	-0.52537422	0.76279636	-0.15399669	-0.60338273	0.74068077	0.18445909	-0.46646849	0.8006752	-0.09611449	-0.48978649	0.78531994	0.15252926	-0.6636418	0.87848428	0.016311099	-0.54670101	1.2758029	-0.17096656	-0.51854831	1.2816727	0.19211445	-0.61207889	1.3132029	0.014048878	-0.6634304	0.98192014	-0.19644058	-0.54627968	0.97085446	0.30242875	-0.58930862	0.75756433	-0.25983914	-0.3212416	0.86543678	0.26889754
131	0.52	-0.059780108	0.10336461	-0.062825945	-0.8103648	0.034663257	0.082923731	-0.18515018	0.08336959	-0.084218623	-0.93905579	0.074995376	0.089211902	-0.19044529	0.10066761	8.8747467e-06	-0.90634572	0.086323299	0.0040314915	-0.23607051	0.024000612	-0.034892975	-0.99206917	0.05894651	0.021981522	-0.31355317	0.4297702	-0.095332379	-0.72571976	0.40354578	0.12761215	-0.33353584	0.41814041	0.028726525	-0.74288745	0.40551839	-0.0059983428	-0.51706124	0.75974539	-0.1536185	-0.59644345	0.73814056	0.18407678	-0.4582214	0.79757071	-0.095735514	-0.48294611	0.78299364	0.15322526	-0.65619868	0.87596119	0.015577625	-0.53979097	1.2730357	-0.17137596	-0.51171126	1.2793137	0.19189045	-0.60513953	1.3106931	0.013689152	-0.65681942	0.97932448	-0.19618227	-0.5383716	0.9683151	0.30247863	-0.58515891	0.75457593	-0.26003454	-0.31318325	0.86384262	0.26828468
132	0.524	-0.05088854	0.10174001	-0.062059942	-0.8103233	0.034623221	0.082965796	-0.17611564	0.081393493	-0.083537388	-0.93827295	0.07626588	0.089271419	-0.18196767	0.098503064	0.00048719817	-0.90555045	0.087206821	0.00416864	-0.22702417	0.0217971	-0.034425063	-0.99144171	0.060996546	0.021916034	-0.30556303	0.42745541	-0.094589029	-0.72029211	0.40204072	0.12779483	-0.32631896	0.41542092	0.029394681	-0.73682058	0.40391236	-0.0059300704	-0.50863799	0.75679296	-0.15321205	-0.58969941	0.73582758	0.18381207	-0.44996711	0.79450437	-0.095287534	-0.47607023	0.78072415	0.15390688	-0.64789431	0.87326783	0.014687469	-0.53281593	1.2702749	-0.17178977	-0.50482788	1.2769886	0.19162179	-0.59817664	1.3081937	0.013291085	-0.6501403	0.97678996	-0.19595382	-0.53049937	0.96582478	0.30247539	-0.580878	0.75162893	-0.26020142	-0.3051534	0.86219705	0.26765902
133	0.528	-0.042501091	0.099697895	-0.061212472	-0.81024561	0.034588502	0.083010236	-0.16760889	0.079142683	-0.082859765	-0.93739486	0.077621404	0.089447433	-0.17398256	0.096097082	0.00098683958	-0.90462202	0.08822583	0.0043555387	-0.2186334	0.019395067	-0.034053927	-0.9907094	0.0632154	0.021899544	-0.29750944	0.42514751	-0.093908358	-0.71482372	0.40050435	0.12799185	-0.31904427	0.41276442	0.029963787	-0.73066723	0.40226584	-0.0057800801	-0.50009765	0.75395149	-0.1527885	-0.58302419	0.73365559	0.18360138	-0.4416893	0.79150137	-0.094774859	-0.46914479	0.77851001	0.15457941	-0.63846976	0.87039601	0.013852218	-0.52578281	1.2675173	-0.17220588	-0.49790818	1.2746994	0.19130843	-0.59120086	1.3057127	0.012844828	-0.64338932	0.97430208	-0.19573812	-0.52267513	0.96339021	0.30241018	-0.5762549	0.74876804	-0.26027356	-0.29716308	0.86050269	0.26702375
